<svg xmlns="http://www.w3.org/2000/svg" xmlns:xlink="http://www.w3.org/1999/xlink" width="330" height="330" viewBox="0 0 330 330">
  <defs>
    <clipPath id="clip-Artboard_6">
      <rect width="330" height="330"/>
    </clipPath>
  </defs>
  <g id="Artboard_6" data-name="Artboard – 6" clip-path="url(#clip-Artboard_6)">
    <path id="Path_23" data-name="Path 23" d="M38.876-241.767a11.425,11.425,0,0,1,4.737,2.269,4.74,4.74,0,0,1,1.4,3.6,13.1,13.1,0,0,1-.4,2.8,55.655,55.655,0,0,0-1.6,12.01,32.081,32.081,0,0,0,2.135,12.544,10.9,10.9,0,0,0,1.535,2.869,2.273,2.273,0,0,0,1.8.867q1.334,0,3.47-2.4a44.766,44.766,0,0,0,7.34-11.743,41.1,41.1,0,0,0,2.936-12.144q.4-4.137,1.334-5.2a2.851,2.851,0,0,1,1.735-.668,33.82,33.82,0,0,1,3.47-.133,28.81,28.81,0,0,1,5,.667,3.06,3.06,0,0,1,1.935,1.335,6.526,6.526,0,0,1,.534,3.069l-.133,6.272q0,2-.133,5.871-.4,12.011-.667,17.882a37.868,37.868,0,0,1-2.8,11.743,5.289,5.289,0,0,1-1.468,1.134,5.826,5.826,0,0,1-2.135.867q-.267,0-1.134-.867a8.443,8.443,0,0,1-1.268-1.535q-.934-2.135-2.135-5.738L63.3-198.931l-.267-.8-.4.4L60.495-198a14.033,14.033,0,0,1-3.47,2.135,13.848,13.848,0,0,1-7.34,1.868,18.833,18.833,0,0,1-10.142-3,21.486,21.486,0,0,1-7.606-8.207A36.975,36.975,0,0,1,27.4-223.752a78.723,78.723,0,0,1,1.468-13.478A4.99,4.99,0,0,1,31.4-240.7a7.687,7.687,0,0,1,4.671-1.468A10.652,10.652,0,0,1,38.876-241.767Zm97.15,40.968q-.267-.267-2.936-3.47-4.4,10.276-6.272,13.745-2.936,6-7.873,6.005a13.62,13.62,0,0,1-5.471-1.468,22.6,22.6,0,0,1-8.541-7.206,36.6,36.6,0,0,1-5.071-10.943q-2.669-9.074-4.8-18.949a11.253,11.253,0,0,1-.267-1.868,5.676,5.676,0,0,1,3.2-5.071,8.8,8.8,0,0,1,4-1.2,8.8,8.8,0,0,1,4,1.2,13.882,13.882,0,0,1,5.271,4.337,12.1,12.1,0,0,1,1.8,6.472,34.9,34.9,0,0,0,1.868,8.34q1.735,5.4,2.135,5.672.4-.534,1.468-1.735a10.719,10.719,0,0,0,1.6-2.269l2.4-4.938a75.574,75.574,0,0,1,5.338-9.741,10.829,10.829,0,0,1,3.8-3.6,9.487,9.487,0,0,1,4.6-1.2q4.27,0,8.007,3.737,1.068,1.2,2,5.071.4,1.868.934,4.938A54.807,54.807,0,0,0,149.5-205.2q.8,2.269,2.669,2.269,1.735,0,3.069-2.135,3.2-5.6,6.939-13.612a86.026,86.026,0,0,1,4.537-9.074,70.783,70.783,0,0,1,7.34-9.742,11.012,11.012,0,0,1,3.6-2.736,8.052,8.052,0,0,1,4.137-1q1.334.134,2.135,2.4a15.163,15.163,0,0,1,.8,5.071,17.97,17.97,0,0,1-.267,2.936,31.2,31.2,0,0,1-1.735,5.738q-1.068,2.536-3.069,6.939-2.4,5.2-3.069,6.806l-1.735,2.669q-4.938,7.607-7.34,10.676a43.012,43.012,0,0,1-8.808,8.007,7.092,7.092,0,0,1-4.27,1.468,9.157,9.157,0,0,1-3.6-.734,23.728,23.728,0,0,1-3.336-1.735q-1.6-1-2.4-1.535a33.154,33.154,0,0,1-6.939-6.005A18.775,18.775,0,0,0,136.026-200.8Zm87.141,2q4.4-7.473,4.4-18.549,0-3.336-.534-10.142v-13.745q0-4.27,3.069-4.27a6.043,6.043,0,0,1,2.135.4q6.806,2.936,7.74,6.272a73.434,73.434,0,0,1,3.336,21.485,59.46,59.46,0,0,1-4.27,22.286,16.676,16.676,0,0,1-7.006,8.407,20.193,20.193,0,0,1-10.476,2.8,22.26,22.26,0,0,1-12.411-3.47,23,23,0,0,1-10.809-16.815q-.667-5.471-1.2-8.407-1.335-7.873-1.735-12.277a5.907,5.907,0,0,1,2.135-5,8.149,8.149,0,0,1,5.471-1.935,7.55,7.55,0,0,1,2.4.4q4.938,1.735,6.806,4.937t1.735,8.674q-.267,4.271-.267,6.406,0,7.606,3.069,12.544a7.718,7.718,0,0,0,1.468,2q.934.934,1.2.8a4.123,4.123,0,0,0,2.068-.934A7.407,7.407,0,0,0,223.167-198.8Z" transform="translate(28.6 380.504)" fill="#ef0c40"/>
    <path id="Subtraction_2" data-name="Subtraction 2" d="M161,322a163.389,163.389,0,0,1-16.461-.832,161.258,161.258,0,0,1-15.987-2.439c-5.188-1.062-10.38-2.4-15.429-3.967-5-1.554-9.974-3.375-14.792-5.414-4.775-2.019-9.51-4.3-14.074-6.779-4.532-2.462-9-5.175-13.275-8.065-4.258-2.876-8.428-5.995-12.395-9.268s-7.8-6.761-11.433-10.391-7.127-7.477-10.391-11.433-6.391-8.135-9.269-12.395c-2.889-4.277-5.6-8.743-8.064-13.275-2.479-4.563-4.76-9.3-6.78-14.073-2.038-4.818-3.86-9.795-5.414-14.792-1.57-5.05-2.905-10.241-3.967-15.429a161.27,161.27,0,0,1-2.44-15.986,163.352,163.352,0,0,1,0-32.922,161.318,161.318,0,0,1,2.44-15.986c1.062-5.188,2.4-10.379,3.967-15.429,1.554-5,3.376-9.974,5.414-14.792,2.02-4.775,4.3-9.51,6.78-14.074,2.462-4.532,5.175-9,8.064-13.275,2.878-4.259,6-8.43,9.269-12.394s6.763-7.806,10.391-11.433,7.474-7.124,11.433-10.391,8.136-6.391,12.395-9.268c4.277-2.889,8.742-5.6,13.275-8.065,4.564-2.479,9.3-4.76,14.074-6.779,4.818-2.038,9.794-3.86,14.792-5.414,5.049-1.571,10.241-2.905,15.429-3.967A161.2,161.2,0,0,1,144.539.832a163.345,163.345,0,0,1,32.922,0,161.167,161.167,0,0,1,15.986,2.439c5.188,1.062,10.38,2.4,15.429,3.967,5,1.554,9.974,3.376,14.792,5.414,4.775,2.019,9.51,4.3,14.074,6.779,4.532,2.462,9,5.175,13.274,8.065,4.26,2.878,8.43,6,12.394,9.268s7.8,6.761,11.434,10.391,7.126,7.476,10.391,11.433,6.392,8.136,9.268,12.394c2.889,4.276,5.6,8.742,8.065,13.275,2.479,4.563,4.76,9.3,6.78,14.074,2.038,4.818,3.86,9.795,5.414,14.792,1.57,5.05,2.905,10.241,3.967,15.429a161.477,161.477,0,0,1,2.439,15.986,163.354,163.354,0,0,1,0,32.922,161.447,161.447,0,0,1-2.439,15.986c-1.062,5.188-2.4,10.379-3.967,15.429-1.554,5-3.376,9.974-5.414,14.792-2.019,4.775-4.3,9.51-6.78,14.073-2.462,4.532-5.175,9-8.065,13.275-2.877,4.258-5.995,8.429-9.268,12.395s-6.758,7.8-10.391,11.433-7.479,7.129-11.434,10.391-8.135,6.392-12.394,9.268c-4.277,2.889-8.742,5.6-13.274,8.065-4.564,2.479-9.3,4.76-14.074,6.779-4.818,2.039-9.794,3.86-14.792,5.414-5.049,1.571-10.241,2.905-15.429,3.967a161.2,161.2,0,0,1-15.986,2.439A163.38,163.38,0,0,1,161,322Zm0-306.543a147.892,147.892,0,0,0-14.881.752,145.649,145.649,0,0,0-14.451,2.206c-4.693.96-9.386,2.167-13.949,3.586-4.512,1.4-9.012,3.05-13.372,4.895-4.317,1.825-8.6,3.887-12.723,6.128-4.094,2.224-8.131,4.677-12,7.29-3.85,2.6-7.619,5.42-11.2,8.379S61.365,54.8,58.085,58.085s-6.443,6.76-9.394,10.336-5.778,7.354-8.379,11.2c-2.615,3.871-5.068,7.909-7.291,12-2.239,4.126-4.3,8.405-6.128,12.723C25.051,108.7,23.4,113.2,22,117.72c-1.42,4.567-2.626,9.259-3.586,13.948a146.155,146.155,0,0,0-2.206,14.451,147.675,147.675,0,0,0,0,29.763,146.111,146.111,0,0,0,2.206,14.451c.959,4.689,2.166,9.381,3.586,13.948,1.405,4.516,3.052,9.015,4.895,13.372,1.827,4.319,3.889,8.6,6.128,12.723,2.224,4.093,4.677,8.13,7.291,12,2.6,3.852,5.421,7.621,8.379,11.2s6.112,7.053,9.394,10.336,6.758,6.441,10.336,9.394,7.355,5.777,11.2,8.379c3.871,2.615,7.908,5.067,12,7.29,4.125,2.24,8.405,4.3,12.723,6.129C108.7,296.95,113.2,298.6,117.72,300c4.566,1.42,9.259,2.626,13.949,3.587a146.012,146.012,0,0,0,14.451,2.2,147.6,147.6,0,0,0,29.762,0,145.981,145.981,0,0,0,14.451-2.2c4.689-.96,9.382-2.166,13.949-3.587,4.515-1.4,9.015-3.052,13.372-4.894,4.319-1.828,8.6-3.89,12.722-6.129,4.094-2.224,8.13-4.677,12-7.29,3.852-2.6,7.622-5.422,11.2-8.379s7.055-6.113,10.335-9.394,6.441-6.758,9.394-10.336,5.776-7.352,8.379-11.2c2.614-3.87,5.067-7.907,7.291-12,2.239-4.122,4.3-8.4,6.128-12.723C296.95,213.3,298.6,208.8,300,204.281c1.42-4.567,2.626-9.26,3.586-13.948.972-4.751,1.714-9.613,2.206-14.451a147.812,147.812,0,0,0,0-29.763c-.492-4.837-1.234-9.7-2.206-14.451-.96-4.689-2.167-9.382-3.586-13.948-1.406-4.517-3.052-9.015-4.895-13.372-1.826-4.318-3.889-8.6-6.128-12.723-2.223-4.091-4.676-8.129-7.291-12-2.6-3.85-5.42-7.619-8.379-11.2s-6.113-7.055-9.394-10.336-6.757-6.441-10.335-9.394-7.353-5.776-11.2-8.379c-3.868-2.612-7.905-5.065-12-7.29-4.122-2.24-8.4-4.3-12.722-6.128-4.36-1.845-8.86-3.492-13.372-4.895-4.563-1.419-9.257-2.626-13.949-3.586a145.618,145.618,0,0,0-14.451-2.206A147.912,147.912,0,0,0,161,15.457Z" transform="translate(3 5)" fill="#ef0c40"/>
  </g>
</svg>
