<svg xmlns="http://www.w3.org/2000/svg" xmlns:xlink="http://www.w3.org/1999/xlink" width="780" height="400" viewBox="0 0 780 400">
  <defs>
    <clipPath id="clip-Artboard_9">
      <rect width="780" height="400"/>
    </clipPath>
  </defs>
  <g id="Artboard_9" data-name="Artboard – 9" clip-path="url(#clip-Artboard_9)">
    <rect width="780" height="400" fill="#fff"/>
    <path id="Path_299" data-name="Path 299" d="M158.443,390H671.682" transform="translate(-14.98 -107)" fill="none" stroke="#c0c0c8" stroke-linecap="square" stroke-linejoin="bevel" stroke-miterlimit="10" stroke-width="4" fill-rule="evenodd"/>
    <path id="Path_305" data-name="Path 305" d="M468,390h0a12,12,0,0,1,12-12h0a12,12,0,0,1,12,12h0a12,12,0,0,1-12,12h0A12,12,0,0,1,468,390Z" transform="translate(171 -107)" fill="#fff" fill-rule="evenodd"/>
    <path id="Path_306" data-name="Path 306" d="M468,390h0a12,12,0,0,1,12-12h0a12,12,0,0,1,12,12h0a12,12,0,0,1-12,12h0A12,12,0,0,1,468,390Z" transform="translate(171 -107)" fill="none" stroke="#c0c0c8" stroke-miterlimit="800" stroke-width="2.667" fill-rule="evenodd"/>
    <text id="_3_Step" data-name="3° Step" transform="translate(619 330)" fill="#c0c0c8" font-size="20" font-family="Roboto-Bold, Roboto" font-weight="700"><tspan x="0" y="0">3° Step</tspan></text>
    <text id="Image_Preprocessing" data-name="Image Preprocessing" transform="translate(329 88)" fill="#444" font-size="24" font-family="Roboto-Bold, Roboto" font-weight="700"><tspan x="0" y="0">Image Preprocessing</tspan></text>
    <text id="The_image_are_preprocessed_removing_all_those_feature_and_artifacts_which_could_lead_to_noise_in_the_next_steps." data-name="The image are preprocessed removing 
all those feature and artifacts which could 
lead to noise in the next steps." transform="translate(329 114)" fill="#858591" font-size="16" font-family="Roboto-Regular, Roboto"><tspan x="0" y="0">The image are </tspan><tspan y="0" fill="#ef0c40" font-family="Roboto-Bold, Roboto" font-weight="700">preprocessed </tspan><tspan y="0">removing </tspan><tspan x="0" y="19">all those feature and artifacts which could </tspan><tspan x="0" y="40">lead to </tspan><tspan y="40" fill="#171c30" font-family="Roboto-Medium, Roboto" font-weight="500">noise </tspan><tspan y="40">in the next steps.</tspan></text>
    <path id="Path_250" data-name="Path 250" d="M706.247,262.141H649.692a3.951,3.951,0,1,0,0,7.9h56.555a3.951,3.951,0,1,0,0-7.9m-64.634,51.347a3.951,3.951,0,1,0-4.039-3.95,4.3,4.3,0,0,0,4.039,3.95m133.309-27.648h-8.079v-23.7l-32.317-31.6H629.494c-4.039,0-8.079,3.95-8.079,7.9v47.4h-8.079c-4.04,0-8.08,3.95-8.08,7.9v31.6c0,3.95,4.04,7.9,8.08,7.9h8.079v67.146a4.041,4.041,0,0,0,8.079,0V333.237h8.08v43.448a4.041,4.041,0,0,0,8.079,0V333.237h8.079v19.749a4.041,4.041,0,0,0,8.079,0V333.237h8.08v59.247a4.041,4.041,0,0,0,8.079,0V333.237h12.119v51.347a4.041,4.041,0,0,0,8.079,0V333.237h12.119v27.648a4.041,4.041,0,0,0,8.079,0V333.237h8.08v35.548a4.041,4.041,0,0,0,8.079,0V333.237H742.6v59.247a4.041,4.041,0,0,0,8.079,0V333.237h8.08v51.347a4.041,4.041,0,0,0,8.079,0V333.237h8.079c4.04,0,8.08-3.95,8.08-7.9v-31.6c0-3.95-4.04-7.9-8.08-7.9m-40.4-43.447,20.2,19.749h-20.2Zm-105.031-3.95h96.952V266.09a4.3,4.3,0,0,0,4.039,3.95h28.278v15.8H629.494Zm145.428,86.9H613.336v-31.6H774.922ZM625.455,313.488a3.951,3.951,0,1,0-4.04-3.95,4.3,4.3,0,0,0,4.04,3.95" transform="translate(-494 -165.648)" fill="#171c30" fill-rule="evenodd"/>
    <g id="Group_25" data-name="Group 25" transform="translate(61 -107)">
      <path id="Path_300" data-name="Path 300" d="M301.221,390h0a12,12,0,0,1,12-12h0a12,12,0,0,1,12,12h0a12,12,0,0,1-12,12h0A12,12,0,0,1,301.221,390Z" transform="translate(25)" fill="#fff" fill-rule="evenodd"/>
      <path id="Path_302" data-name="Path 302" d="M134.443,390h0a12,12,0,0,1,12-12h0a12,12,0,0,1,12,12h0a12,12,0,0,1-12,12h0A12,12,0,0,1,134.443,390Z" transform="translate(191.557)" fill="#ef0c40" fill-rule="evenodd"/>
      <path id="Path_301" data-name="Path 301" d="M301.221,390h0a12,12,0,0,1,12-12h0a12,12,0,0,1,12,12h0a12,12,0,0,1-12,12h0A12,12,0,0,1,301.221,390Z" transform="translate(25)" fill="none" stroke="#c0c0c8" stroke-miterlimit="800" stroke-width="2.667" fill-rule="evenodd"/>
      <text id="_2" data-name="2" transform="translate(333 397)" fill="#fff" font-size="20" font-family="SegoeUI-Bold, Segoe UI" font-weight="700"><tspan x="0" y="0">2</tspan></text>
      <text id="_2_Step" data-name="2° Step" transform="translate(306 437)" fill="#171c30" font-size="20" font-family="Roboto-Bold, Roboto" font-weight="700"><tspan x="0" y="0">2° Step</tspan></text>
    </g>
    <g id="Group_26" data-name="Group 26" transform="translate(-28 -107)">
      <text id="_1_Step" data-name="1° Step" transform="translate(139 437)" fill="#c0c0c8" font-size="20" font-family="Roboto-Bold, Roboto" font-weight="700"><tspan x="0" y="0">1° Step</tspan></text>
      <path id="Path_480" data-name="Path 480" d="M468,390h0a12,12,0,0,1,12-12h0a12,12,0,0,1,12,12h0a12,12,0,0,1-12,12h0A12,12,0,0,1,468,390Z" transform="translate(-308)" fill="#fff" fill-rule="evenodd"/>
      <path id="Path_481" data-name="Path 481" d="M468,390h0a12,12,0,0,1,12-12h0a12,12,0,0,1,12,12h0a12,12,0,0,1-12,12h0A12,12,0,0,1,468,390Z" transform="translate(-308)" fill="none" stroke="#c0c0c8" stroke-miterlimit="800" stroke-width="2.667" fill-rule="evenodd"/>
      <path id="Path_482" data-name="Path 482" d="M468,390h0a12,12,0,0,1,12-12h0a12,12,0,0,1,12,12h0a12,12,0,0,1-12,12h0A12,12,0,0,1,468,390Z" transform="translate(-308)" fill="none" stroke="#c0c0c8" stroke-miterlimit="800" stroke-width="2.667" fill-rule="evenodd"/>
    </g>
  </g>
</svg>
