<svg xmlns="http://www.w3.org/2000/svg" xmlns:xlink="http://www.w3.org/1999/xlink" width="780" height="400" viewBox="0 0 780 400">
  <defs>
    <clipPath id="clip-Artboard_6">
      <rect width="780" height="400"/>
    </clipPath>
  </defs>
  <g id="Artboard_6" data-name="Artboard – 6" clip-path="url(#clip-Artboard_6)">
    <rect width="780" height="400" fill="#fff"/>
    <path id="Path_299" data-name="Path 299" d="M158.443,390H671.682" transform="translate(-14.98 -107)" fill="none" stroke="#c0c0c8" stroke-linecap="square" stroke-linejoin="bevel" stroke-miterlimit="10" stroke-width="4" fill-rule="evenodd"/>
    <path id="Path_300" data-name="Path 300" d="M301.221,390h0a12,12,0,0,1,12-12h0a12,12,0,0,1,12,12h0a12,12,0,0,1-12,12h0A12,12,0,0,1,301.221,390Z" transform="translate(77 -107)" fill="#fff" fill-rule="evenodd"/>
    <path id="Path_301" data-name="Path 301" d="M301.221,390h0a12,12,0,0,1,12-12h0a12,12,0,0,1,12,12h0a12,12,0,0,1-12,12h0A12,12,0,0,1,301.221,390Z" transform="translate(77 -107)" fill="none" stroke="#c0c0c8" stroke-miterlimit="800" stroke-width="2.667" fill-rule="evenodd"/>
    <path id="Path_302" data-name="Path 302" d="M134.443,390h0a12,12,0,0,1,12-12h0a12,12,0,0,1,12,12h0a12,12,0,0,1-12,12h0A12,12,0,0,1,134.443,390Z" transform="translate(-3.443 -107)" fill="#ef0c40" fill-rule="evenodd"/>
    <path id="Path_305" data-name="Path 305" d="M468,390h0a12,12,0,0,1,12-12h0a12,12,0,0,1,12,12h0a12,12,0,0,1-12,12h0A12,12,0,0,1,468,390Z" transform="translate(171 -107)" fill="#fff" fill-rule="evenodd"/>
    <path id="Path_306" data-name="Path 306" d="M468,390h0a12,12,0,0,1,12-12h0a12,12,0,0,1,12,12h0a12,12,0,0,1-12,12h0A12,12,0,0,1,468,390Z" transform="translate(171 -107)" fill="none" stroke="#c0c0c8" stroke-miterlimit="800" stroke-width="2.667" fill-rule="evenodd"/>
    <path id="Path_484" data-name="Path 484" d="M468,390h0a12,12,0,0,1,12-12h0a12,12,0,0,1,12,12h0a12,12,0,0,1-12,12h0A12,12,0,0,1,468,390Z" transform="translate(-337 -108)" fill="none" stroke="#c0c0c8" stroke-miterlimit="800" stroke-width="2.667" fill-rule="evenodd"/>
    <path id="Path_485" data-name="Path 485" d="M468,390h0a12,12,0,0,1,12-12h0a12,12,0,0,1,12,12h0a12,12,0,0,1-12,12h0A12,12,0,0,1,468,390Z" transform="translate(-337 -108)" fill="none" stroke="#c0c0c8" stroke-miterlimit="800" stroke-width="2.667" fill-rule="evenodd"/>
    <text id="_1" data-name="1" transform="translate(137 289)" fill="#fff" font-size="20" font-family="SegoeUI-Bold, Segoe UI" font-weight="700"><tspan x="0" y="0">1</tspan></text>
    <text id="_1_Step" data-name="1° Step" transform="translate(111 330)" font-size="20" font-family="Roboto-Bold, Roboto" font-weight="700"><tspan x="0" y="0">1° Step</tspan></text>
    <text id="_2_Step" data-name="2° Step" transform="translate(358 330)" fill="#c0c0c8" font-size="20" font-family="Roboto-Bold, Roboto" font-weight="700"><tspan x="0" y="0">2° Step</tspan></text>
    <text id="_3_Step" data-name="3° Step" transform="translate(619 330)" fill="#c0c0c8" font-size="20" font-family="Roboto-Bold, Roboto" font-weight="700"><tspan x="0" y="0">3° Step</tspan></text>
    <path id="Path_360" data-name="Path 360" d="M298.054,137.894H283.276V215.41h14.778Zm-22.166,0H268.5V215.41h7.389Zm-14.778,0H246.332V215.41H261.11Zm-22.166,0h-7.389V215.41h7.389Zm-14.778,0c-3.694,0-7.389,4.845-7.389,9.689V215.41h7.389V137.894Zm118.221,0H335V215.41h7.389Zm-29.555,0h-7.389V215.41h7.389Zm51.722,9.689c0-4.845-3.694-9.689-7.389-9.689h-7.389V215.41h14.778V147.583Zm-36.944-9.689h-7.389V215.41h7.389Zm22.166,155.031h7.389c3.694,0,7.389-4.845,7.389-9.689V263.857H349.776v29.068Zm-29.555,0h7.389V263.857h-7.389Zm14.778,0h7.389V263.857H335Zm-118.221-9.689c0,4.845,3.694,9.689,7.389,9.689V263.857h-7.389ZM364.553,225.1H216.777c-3.694,0-7.389,4.845-7.389,9.689v9.689c0,4.845,3.694,9.689,7.389,9.689H364.553c3.694,0,7.389-4.845,7.389-9.689v-9.689c0-4.845-3.694-9.689-7.389-9.689m0,19.379H216.777v-9.689H364.553Zm-59.111,48.447h7.389V263.857h-7.389Zm-59.111,0H261.11V263.857H246.332v29.068Zm-14.778,0h7.389V263.857h-7.389Zm36.944,0h7.389V263.857H268.5Zm14.778,0h14.778V263.857H283.276Z" transform="translate(-35 -62)" fill="#171c30" fill-rule="evenodd"/>
    <path id="Path_361" data-name="Path 361" d="M119.564,211.908a7.809,7.809,0,0,0-8.791,2.406,5.268,5.268,0,0,0,2.2,7.7,14.59,14.59,0,0,0,4.835.963,7.971,7.971,0,0,0,5.714-2.406c1.758-2.888-.879-6.738-3.956-8.663m-1.758,7.219a22.782,22.782,0,0,1-3.077-.481q-1.319-.722-1.319-1.444v-.963a5.954,5.954,0,0,1,3.077-.963,2.467,2.467,0,0,1,1.758.481,3.681,3.681,0,0,1,2.2,2.406,3.528,3.528,0,0,1-2.637.963m0,38.5a14.589,14.589,0,0,0-4.835.963,5.268,5.268,0,0,0-2.2,7.7,7.809,7.809,0,0,0,8.791,2.406c3.077-1.925,5.714-5.775,3.956-8.663a7.971,7.971,0,0,0-5.714-2.406m.44,7.219a2.467,2.467,0,0,1-1.758.481,5.954,5.954,0,0,1-3.077-.963v-.963q0-.722,1.319-1.444a22.782,22.782,0,0,1,3.077-.481,3.528,3.528,0,0,1,2.637.963,3.681,3.681,0,0,1-2.2,2.406m60.218-49.572c0-4.332-6.593-7.7-10.549-7.7h-.44c-2.637,0-3.516.481-34.724,24.546l-3.516-2.888a12.578,12.578,0,0,0,2.2-2.888c3.956-7.219-1.319-18.289-8.351-22.62a15.094,15.094,0,0,0-20.219,5.775,15.931,15.931,0,0,0,4.835,20.214c5.275,3.85,9.67,7.219,14.065,10.588-4.4,3.369-8.791,6.738-14.065,10.588a15.931,15.931,0,0,0-4.835,20.214,15.094,15.094,0,0,0,20.219,5.775c7.033-4.332,12.307-15.4,8.351-22.62a12.578,12.578,0,0,0-2.2-2.888l3.516-2.888c31.208,24.064,32.087,24.545,34.724,24.545h.44c3.956,0,10.549-3.369,10.549-7.7L144.179,240.3l34.285-25.027Zm-68.13,11.551c-5.275-3.369-7.472-10.107-4.4-15.4a12.178,12.178,0,0,1,15.824-4.332c5.275,3.369,9.67,11.551,6.593,16.845-3.516,5.775-12.747,6.257-18.021,2.888m7.472,5.775a22.941,22.941,0,0,0,7.912-1.444l3.956,3.369c-1.758.963-3.077,2.406-4.835,3.369a67.2,67.2,0,0,1-7.033-5.294m3.956,40.909a12.178,12.178,0,0,1-15.824-4.332,11.468,11.468,0,0,1,4.4-15.4c5.275-3.369,14.5-2.888,18.021,2.888,3.077,5.294-1.319,13.476-6.593,16.845m3.956-24.064A22.941,22.941,0,0,0,117.806,248c40.878-31.283,47.91-36.577,49.669-36.577,0,0,3.077-.481,6.593,2.406l-48.35,35.615Zm48.35,17.326c-3.516,2.888-6.593,2.406-6.593,2.406-1.319,0-6.593-3.85-31.647-22.62l5.275-3.85,32.966,24.064Zm-41.317-28.4a1.933,1.933,0,1,0,1.758,1.925,1.987,1.987,0,0,0-1.758-1.925" transform="translate(-35 -62)" fill="#ef0c40" fill-rule="evenodd"/>
    <text id="File_Segmentation" data-name="File Segmentation" transform="translate(380 99)" fill="#444" font-size="24" font-family="Roboto-Bold, Roboto" font-weight="700"><tspan x="0" y="0">File Segmentation</tspan></text>
    <text id="Video_Files_are_segmented_in_frames." data-name="Video Files are segmented in frames." transform="translate(380 125)" fill="#858591" font-size="16" font-family="Roboto-Regular, Roboto"><tspan x="0" y="0">Video Files are segmented in </tspan><tspan y="0" fill="#ef0c40" font-family="Roboto-Bold, Roboto" font-weight="700">frames</tspan><tspan y="0" font-family="Roboto-Bold, Roboto" font-weight="700">.</tspan></text>
  </g>
</svg>
